#!OML:ASF X:\für Bonn\!DataBase\2005_08_12_Daniel\c3d\Daniel.ASF
:FULLY-SPECIFIED
:DEGREES
1
root 3.53649 16.8766 -1.93832 -124.111 -82.7191 120.499
lowerback 12.0947 -4.6235 -7.32106
upperback -0.39424 -7.51491 -3.16932
thorax -6.69276 -3.51356 2.02647
lowerneck -0.225456 6.53561 -2.39358
upperneck 4.54329 8.76063 -1.40482
head 1.39835 4.28216 0.0670472
rclavicle -1.76732e-014 6.75868e-015
rhumerus -59.3994 10.8849 -104.969
rradius 84.9096
rwrist 16.1127
rhand -22.8303 29.7726
rfingers 7.12502
rthumb 3.607 -0.176636
lclavicle -1.76732e-014 6.75868e-015
lhumerus -54.3375 -7.0371 99.5799
lradius 117.007
lwrist 4.49978
lhand -20.237 -16.1002
lfingers 7.12502
lthumb 6.11104 13.7917
rfemur -21.702 -4.11309 11.2339
rtibia 52.1965
rfoot -26.971 2.1015
rtoes -9.82047
lfemur -11.0589 -11.2805 -25.2939
ltibia 45.6815
lfoot -32.7333 9.68378
ltoes -15.5518
2
root 3.53614 16.8781 -1.98239 -123.494 -82.8676 119.713
lowerback 12.2149 -4.71113 -7.24881
upperback -0.418681 -7.62907 -3.12189
thorax -6.78008 -3.56517 2.06777
lowerneck -0.0252746 6.58399 -2.34928
upperneck 4.60491 8.82349 -1.6622
head 1.39806 4.3072 -0.0230265
rclavicle -1.19271e-015 -3.77691e-014
rhumerus -59.6563 10.5839 -104.498
rradius 84.89
rwrist 16.5322
rhand -23.1215 29.7692
rfingers 7.12502
rthumb 3.32574 -0.184576
lclavicle -1.19271e-015 -3.77691e-014
lhumerus -54.2239 -6.68732 99.5428
lradius 117.089
lwrist 4.35353
lhand -20.2142 -15.9892
lfingers 7.12502
lthumb 6.13304 13.902
rfemur -21.3757 -3.95348 11.4799
rtibia 52.0717
rfoot -27.0402 1.86249
rtoes -9.61059
lfemur -11.473 -10.3112 -24.7906
ltibia 46.3357
lfoot -32.2505 8.60937
ltoes -15.6739
3
root 3.53642 16.879 -2.02603 -122.952 -83.0316 118.978
lowerback 12.3464 -4.78275 -7.1131
upperback -0.427154 -7.71588 -3.10677
thorax -6.87154 -3.60683 2.03783
lowerneck 0.215154 6.61409 -2.24319
upperneck 4.65345 8.86015 -1.93453
head 1.39073 4.32058 -0.129329
rclavicle -5.92254e-014 1.74931e-014
rhumerus -59.9038 10.2231 -104.032
rradius 84.9598
rwrist 16.8118
rhand -23.2106 29.7394
rfingers 7.12502
rthumb 3.23968 -0.215738
lclavicle -5.92254e-014 1.74931e-014
lhumerus -54.1214 -6.39892 99.441
lradius 117.188
lwrist 4.18182
lhand -20.1431 -15.8451
lfingers 7.12502
lthumb 6.20166 14.0441
rfemur -21.0332 -3.78013 11.7461
rtibia 51.9644
rfoot -27.1342 1.61552
rtoes -9.41426
lfemur -12.0464 -9.19878 -24.2311
ltibia 47.2363
lfoot -31.6674 7.38372
ltoes -15.7346
4
root 3.53827 16.8748 -2.06846 -122.3 -83.2153 118.116
lowerback 12.494 -4.85648 -6.9428
upperback -0.417265 -7.79933 -3.08393
thorax -6.95619 -3.64854 1.99782
lowerneck 0.432371 6.64618 -2.17162
upperneck 4.68707 8.90052 -2.20907
head 1.38158 4.33552 -0.230308
rclavicle 1.4033e-014 -2.66371e-014
rhumerus -60.0989 9.84596 -103.546
rradius 85.0296
rwrist 17.0115
rhand -23.1808 29.7643
rfingers 7.12502
rthumb 3.26851 -0.190437
lclavicle 1.4033e-014 -2.66371e-014
lhumerus -53.9208 -6.10483 99.2966
lradius 117.238
lwrist 4.00431
lhand -20.08 -15.7119
lfingers 7.12502
lthumb 6.2626 14.1755
rfemur -20.7031 -3.59917 12.0223
rtibia 51.9011
rfoot -27.2572 1.3587
rtoes -9.22537
lfemur -12.8072 -7.87085 -23.6214
ltibia 48.4408
lfoot -31.0193 5.9898
ltoes -15.9565
5
root 3.54204 16.863 -2.10958 -121.589 -83.3799 117.163
lowerback 12.6689 -4.92777 -6.77374
upperback -0.393277 -7.88168 -3.06808
thorax -7.04237 -3.69016 1.95347
lowerneck 0.609808 6.68712 -2.1967
upperneck 4.79875 8.95201 -2.3691
head 1.39399 4.35429 -0.278456
rclavicle 3.81729e-015 7.95139e-016
rhumerus -60.2447 9.52548 -103.064
rradius 85.059
rwrist 17.1225
rhand -23.1158 29.9465
rfingers 7.12502
rthumb 3.33122 -0.0072584
lclavicle 3.81729e-015 7.95139e-016
lhumerus -53.6196 -5.79134 99.0531
lradius 117.24
lwrist 3.81736
lhand -19.9515 -15.6105
lfingers 7.12502
lthumb 6.38665 14.2732
rfemur -20.3635 -3.3958 12.2726
rtibia 51.8615
rfoot -27.393 1.09606
rtoes -9.01776
lfemur -13.7693 -6.3878 -23.0077
ltibia 50.0181
lfoot -30.2587 4.52414
ltoes -16.2224
6
root 3.54576 16.8492 -2.14976 -121.015 -83.573 116.32
lowerback 12.835 -5.00017 -6.5438
upperback -0.336858 -7.95311 -3.05737
thorax -7.09852 -3.7309 1.86691
lowerneck 0.679119 6.73034 -2.28081
upperneck 5.04044 9.00981 -2.41043
head 1.4574 4.37337 -0.274747
rclavicle -1.56704e-013 -5.56597e-015
rhumerus -60.374 9.22931 -102.59
rradius 85.134
rwrist 17.2837
rhand -23.0882 30.1947
rfingers 7.12502
rthumb 3.35791 0.241445
lclavicle -1.56704e-013 -5.56597e-015
lhumerus -53.2069 -5.50282 98.7201
lradius 117.177
lwrist 3.6776
lhand -19.8174 -15.5084
lfingers 7.12502
lthumb 6.51606 14.3713
rfemur -19.9851 -3.15993 12.5627
rtibia 51.8062
rfoot -27.5551 0.827951
rtoes -8.86787
lfemur -14.9738 -4.88109 -22.3596
ltibia 52.0285
lfoot -29.3879 3.16439
ltoes -16.7058
7
root 3.54985 16.8453 -2.18896 -120.32 -83.7417 115.276
lowerback 13.0857 -5.06508 -6.3335
upperback -0.253465 -8.024 -3.05486
thorax -7.17246 -3.77058 1.79004
lowerneck 0.734421 6.7712 -2.45776
upperneck 5.28711 9.06212 -2.36661
head 1.51614 4.38904 -0.230204
rclavicle 5.36193e-014 2.8625e-014
rhumerus -60.5448 9.015 -102.142
rradius 85.2604
rwrist 17.4741
rhand -23.1009 30.4976
rfingers 7.12502
rthumb 3.34562 0.544102
lclavicle 5.36193e-014 2.8625e-014
lhumerus -52.7728 -5.2031 98.3793
lradius 117.125
lwrist 3.50296
lhand -19.7604 -15.4208
lfingers 7.12502
lthumb 6.5711 14.4573
rfemur -19.4679 -2.8884 12.8247
rtibia 51.6932
rfoot -27.7026 0.544666
rtoes -8.64475
lfemur -16.3716 -3.43056 -21.7613
ltibia 54.484
lfoot -28.3017 1.93877
ltoes -17.1532
8
root 3.5555 16.8432 -2.22599 -119.302 -83.9507 113.864
lowerback 13.3626 -5.13729 -6.04409
upperback -0.115491 -8.09452 -3.09224
thorax -7.2194 -3.81641 1.6291
lowerneck 0.794025 6.77649 -2.57795
upperneck 5.45206 9.06634 -2.34234
head 1.55176 4.38383 -0.20279
rclavicle 1.15198e-013 2.50469e-014
rhumerus -60.6997 8.80789 -101.74
rradius 85.4501
rwrist 17.7364
rhand -23.236 30.7346
rfingers 7.12502
rthumb 3.21518 0.779076
lclavicle 1.15198e-013 2.50469e-014
lhumerus -52.2715 -4.99512 97.9572
lradius 117.078
lwrist 3.37559
lhand -19.7683 -15.3834
lfingers 7.12502
lthumb 6.56352 14.4949
rfemur -18.8567 -2.65657 13.1082
rtibia 51.5223
rfoot -27.8589 0.260673
rtoes -8.42799
lfemur -18.035 -2.07663 -21.1556
ltibia 57.358
lfoot -26.3298 0.82828
ltoes -18.4988
